<?xml version='1.0' encoding='UTF-8'?>
<svg width="49mm" height="49mm" version="1.1" viewBox="0 0 49 49" xmlns="http://www.w3.org/2000/svg"><path d="M2,2H3V3H2zM3,2H4V3H3zM4,2H5V3H4zM5,2H6V3H5zM6,2H7V3H6zM7,2H8V3H7zM8,2H9V3H8zM10,2H11V3H10zM12,2H13V3H12zM13,2H14V3H13zM18,2H19V3H18zM22,2H23V3H22zM27,2H28V3H27zM28,2H29V3H28zM29,2H30V3H29zM30,2H31V3H30zM31,2H32V3H31zM32,2H33V3H32zM33,2H34V3H33zM35,2H36V3H35zM38,2H39V3H38zM40,2H41V3H40zM41,2H42V3H41zM42,2H43V3H42zM43,2H44V3H43zM44,2H45V3H44zM45,2H46V3H45zM46,2H47V3H46zM2,3H3V4H2zM8,3H9V4H8zM11,3H12V4H11zM12,3H13V4H12zM16,3H17V4H16zM17,3H18V4H17zM19,3H20V4H19zM22,3H23V4H22zM23,3H24V4H23zM25,3H26V4H25zM28,3H29V4H28zM29,3H30V4H29zM32,3H33V4H32zM35,3H36V4H35zM37,3H38V4H37zM40,3H41V4H40zM46,3H47V4H46zM2,4H3V5H2zM4,4H5V5H4zM5,4H6V5H5zM6,4H7V5H6zM8,4H9V5H8zM10,4H11V5H10zM12,4H13V5H12zM13,4H14V5H13zM14,4H15V5H14zM15,4H16V5H15zM17,4H18V5H17zM18,4H19V5H18zM19,4H20V5H19zM24,4H25V5H24zM26,4H27V5H26zM31,4H32V5H31zM32,4H33V5H32zM33,4H34V5H33zM35,4H36V5H35zM37,4H38V5H37zM40,4H41V5H40zM42,4H43V5H42zM43,4H44V5H43zM44,4H45V5H44zM46,4H47V5H46zM2,5H3V6H2zM4,5H5V6H4zM5,5H6V6H5zM6,5H7V6H6zM8,5H9V6H8zM12,5H13V6H12zM16,5H17V6H16zM17,5H18V6H17zM19,5H20V6H19zM21,5H22V6H21zM22,5H23V6H22zM24,5H25V6H24zM25,5H26V6H25zM27,5H28V6H27zM28,5H29V6H28zM29,5H30V6H29zM32,5H33V6H32zM33,5H34V6H33zM35,5H36V6H35zM37,5H38V6H37zM38,5H39V6H38zM40,5H41V6H40zM42,5H43V6H42zM43,5H44V6H43zM44,5H45V6H44zM46,5H47V6H46zM2,6H3V7H2zM4,6H5V7H4zM5,6H6V7H5zM6,6H7V7H6zM8,6H9V7H8zM11,6H12V7H11zM14,6H15V7H14zM16,6H17V7H16zM18,6H19V7H18zM19,6H20V7H19zM22,6H23V7H22zM23,6H24V7H23zM24,6H25V7H24zM25,6H26V7H25zM26,6H27V7H26zM28,6H29V7H28zM30,6H31V7H30zM32,6H33V7H32zM34,6H35V7H34zM36,6H37V7H36zM37,6H38V7H37zM38,6H39V7H38zM40,6H41V7H40zM42,6H43V7H42zM43,6H44V7H43zM44,6H45V7H44zM46,6H47V7H46zM2,7H3V8H2zM8,7H9V8H8zM10,7H11V8H10zM13,7H14V8H13zM14,7H15V8H14zM15,7H16V8H15zM22,7H23V8H22zM26,7H27V8H26zM27,7H28V8H27zM28,7H29V8H28zM29,7H30V8H29zM30,7H31V8H30zM33,7H34V8H33zM34,7H35V8H34zM35,7H36V8H35zM40,7H41V8H40zM46,7H47V8H46zM2,8H3V9H2zM3,8H4V9H3zM4,8H5V9H4zM5,8H6V9H5zM6,8H7V9H6zM7,8H8V9H7zM8,8H9V9H8zM10,8H11V9H10zM12,8H13V9H12zM14,8H15V9H14zM16,8H17V9H16zM18,8H19V9H18zM20,8H21V9H20zM22,8H23V9H22zM24,8H25V9H24zM26,8H27V9H26zM28,8H29V9H28zM30,8H31V9H30zM32,8H33V9H32zM34,8H35V9H34zM36,8H37V9H36zM38,8H39V9H38zM40,8H41V9H40zM41,8H42V9H41zM42,8H43V9H42zM43,8H44V9H43zM44,8H45V9H44zM45,8H46V9H45zM46,8H47V9H46zM11,9H12V10H11zM15,9H16V10H15zM16,9H17V10H16zM19,9H20V10H19zM21,9H22V10H21zM22,9H23V10H22zM26,9H27V10H26zM27,9H28V10H27zM29,9H30V10H29zM34,9H35V10H34zM35,9H36V10H35zM38,9H39V10H38zM2,10H3V11H2zM4,10H5V11H4zM8,10H9V11H8zM9,10H10V11H9zM11,10H12V11H11zM14,10H15V11H14zM15,10H16V11H15zM16,10H17V11H16zM17,10H18V11H17zM18,10H19V11H18zM19,10H20V11H19zM20,10H21V11H20zM22,10H23V11H22zM23,10H24V11H23zM24,10H25V11H24zM25,10H26V11H25zM26,10H27V11H26zM27,10H28V11H27zM30,10H31V11H30zM34,10H35V11H34zM37,10H38V11H37zM41,10H42V11H41zM44,10H45V11H44zM46,10H47V11H46zM3,11H4V12H3zM5,11H6V12H5zM7,11H8V12H7zM9,11H10V12H9zM10,11H11V12H10zM11,11H12V12H11zM13,11H14V12H13zM15,11H16V12H15zM16,11H17V12H16zM17,11H18V12H17zM19,11H20V12H19zM21,11H22V12H21zM22,11H23V12H22zM23,11H24V12H23zM26,11H27V12H26zM27,11H28V12H27zM29,11H30V12H29zM30,11H31V12H30zM31,11H32V12H31zM33,11H34V12H33zM35,11H36V12H35zM37,11H38V12H37zM41,11H42V12H41zM42,11H43V12H42zM43,11H44V12H43zM44,11H45V12H44zM45,11H46V12H45zM46,11H47V12H46zM3,12H4V13H3zM5,12H6V13H5zM6,12H7V13H6zM7,12H8V13H7zM8,12H9V13H8zM9,12H10V13H9zM10,12H11V13H10zM12,12H13V13H12zM13,12H14V13H13zM14,12H15V13H14zM16,12H17V13H16zM17,12H18V13H17zM18,12H19V13H18zM19,12H20V13H19zM20,12H21V13H20zM21,12H22V13H21zM22,12H23V13H22zM23,12H24V13H23zM24,12H25V13H24zM26,12H27V13H26zM27,12H28V13H27zM31,12H32V13H31zM33,12H34V13H33zM35,12H36V13H35zM38,12H39V13H38zM41,12H42V13H41zM42,12H43V13H42zM43,12H44V13H43zM44,12H45V13H44zM46,12H47V13H46zM2,13H3V14H2zM3,13H4V14H3zM4,13H5V14H4zM6,13H7V14H6zM11,13H12V14H11zM13,13H14V14H13zM14,13H15V14H14zM20,13H21V14H20zM21,13H22V14H21zM22,13H23V14H22zM23,13H24V14H23zM28,13H29V14H28zM30,13H31V14H30zM33,13H34V14H33zM35,13H36V14H35zM37,13H38V14H37zM38,13H39V14H38zM42,13H43V14H42zM43,13H44V14H43zM2,14H3V15H2zM7,14H8V15H7zM8,14H9V15H8zM11,14H12V15H11zM12,14H13V15H12zM15,14H16V15H15zM17,14H18V15H17zM18,14H19V15H18zM20,14H21V15H20zM21,14H22V15H21zM23,14H24V15H23zM26,14H27V15H26zM28,14H29V15H28zM30,14H31V15H30zM34,14H35V15H34zM35,14H36V15H35zM36,14H37V15H36zM37,14H38V15H37zM39,14H40V15H39zM42,14H43V15H42zM43,14H44V15H43zM45,14H46V15H45zM2,15H3V16H2zM3,15H4V16H3zM6,15H7V16H6zM9,15H10V16H9zM11,15H12V16H11zM13,15H14V16H13zM15,15H16V16H15zM16,15H17V16H16zM17,15H18V16H17zM18,15H19V16H18zM20,15H21V16H20zM21,15H22V16H21zM22,15H23V16H22zM24,15H25V16H24zM25,15H26V16H25zM26,15H27V16H26zM27,15H28V16H27zM31,15H32V16H31zM34,15H35V16H34zM37,15H38V16H37zM39,15H40V16H39zM43,15H44V16H43zM44,15H45V16H44zM46,15H47V16H46zM3,16H4V17H3zM4,16H5V17H4zM7,16H8V17H7zM8,16H9V17H8zM10,16H11V17H10zM11,16H12V17H11zM12,16H13V17H12zM13,16H14V17H13zM14,16H15V17H14zM16,16H17V17H16zM20,16H21V17H20zM26,16H27V17H26zM27,16H28V17H27zM31,16H32V17H31zM33,16H34V17H33zM34,16H35V17H34zM37,16H38V17H37zM38,16H39V17H38zM42,16H43V17H42zM43,16H44V17H43zM45,16H46V17H45zM46,16H47V17H46zM2,17H3V18H2zM3,17H4V18H3zM5,17H6V18H5zM7,17H8V18H7zM9,17H10V18H9zM11,17H12V18H11zM12,17H13V18H12zM14,17H15V18H14zM17,17H18V18H17zM21,17H22V18H21zM27,17H28V18H27zM28,17H29V18H28zM29,17H30V18H29zM30,17H31V18H30zM31,17H32V18H31zM32,17H33V18H32zM34,17H35V18H34zM35,17H36V18H35zM36,17H37V18H36zM37,17H38V18H37zM38,17H39V18H38zM39,17H40V18H39zM42,17H43V18H42zM43,17H44V18H43zM45,17H46V18H45zM2,18H3V19H2zM3,18H4V19H3zM5,18H6V19H5zM6,18H7V19H6zM8,18H9V19H8zM11,18H12V19H11zM12,18H13V19H12zM15,18H16V19H15zM16,18H17V19H16zM17,18H18V19H17zM18,18H19V19H18zM19,18H20V19H19zM20,18H21V19H20zM22,18H23V19H22zM23,18H24V19H23zM24,18H25V19H24zM28,18H29V19H28zM30,18H31V19H30zM31,18H32V19H31zM34,18H35V19H34zM36,18H37V19H36zM37,18H38V19H37zM40,18H41V19H40zM42,18H43V19H42zM46,18H47V19H46zM2,19H3V20H2zM3,19H4V20H3zM9,19H10V20H9zM10,19H11V20H10zM15,19H16V20H15zM16,19H17V20H16zM20,19H21V20H20zM21,19H22V20H21zM23,19H24V20H23zM26,19H27V20H26zM27,19H28V20H27zM30,19H31V20H30zM31,19H32V20H31zM33,19H34V20H33zM35,19H36V20H35zM37,19H38V20H37zM39,19H40V20H39zM43,19H44V20H43zM44,19H45V20H44zM46,19H47V20H46zM3,20H4V21H3zM7,20H8V21H7zM8,20H9V21H8zM11,20H12V21H11zM12,20H13V21H12zM14,20H15V21H14zM18,20H19V21H18zM19,20H20V21H19zM21,20H22V21H21zM23,20H24V21H23zM24,20H25V21H24zM25,20H26V21H25zM26,20H27V21H26zM27,20H28V21H27zM31,20H32V21H31zM34,20H35V21H34zM41,20H42V21H41zM44,20H45V21H44zM46,20H47V21H46zM3,21H4V22H3zM4,21H5V22H4zM5,21H6V22H5zM6,21H7V22H6zM7,21H8V22H7zM9,21H10V22H9zM10,21H11V22H10zM11,21H12V22H11zM13,21H14V22H13zM14,21H15V22H14zM15,21H16V22H15zM17,21H18V22H17zM19,21H20V22H19zM21,21H22V22H21zM26,21H27V22H26zM27,21H28V22H27zM30,21H31V22H30zM32,21H33V22H32zM34,21H35V22H34zM35,21H36V22H35zM37,21H38V22H37zM38,21H39V22H38zM40,21H41V22H40zM43,21H44V22H43zM45,21H46V22H45zM2,22H3V23H2zM6,22H7V23H6zM7,22H8V23H7zM8,22H9V23H8zM9,22H10V23H9zM10,22H11V23H10zM14,22H15V23H14zM15,22H16V23H15zM17,22H18V23H17zM18,22H19V23H18zM20,22H21V23H20zM22,22H23V23H22zM23,22H24V23H23zM24,22H25V23H24zM25,22H26V23H25zM26,22H27V23H26zM27,22H28V23H27zM28,22H29V23H28zM29,22H30V23H29zM30,22H31V23H30zM33,22H34V23H33zM34,22H35V23H34zM35,22H36V23H35zM36,22H37V23H36zM37,22H38V23H37zM38,22H39V23H38zM39,22H40V23H39zM40,22H41V23H40zM41,22H42V23H41zM42,22H43V23H42zM45,22H46V23H45zM46,22H47V23H46zM2,23H3V24H2zM4,23H5V24H4zM5,23H6V24H5zM6,23H7V24H6zM10,23H11V24H10zM13,23H14V24H13zM14,23H15V24H14zM15,23H16V24H15zM16,23H17V24H16zM20,23H21V24H20zM22,23H23V24H22zM26,23H27V24H26zM30,23H31V24H30zM34,23H35V24H34zM35,23H36V24H35zM37,23H38V24H37zM38,23H39V24H38zM42,23H43V24H42zM43,23H44V24H43zM4,24H5V25H4zM5,24H6V25H5zM6,24H7V25H6zM8,24H9V25H8zM10,24H11V25H10zM13,24H14V25H13zM16,24H17V25H16zM17,24H18V25H17zM18,24H19V25H18zM22,24H23V25H22zM24,24H25V25H24zM26,24H27V25H26zM27,24H28V25H27zM30,24H31V25H30zM33,24H34V25H33zM34,24H35V25H34zM35,24H36V25H35zM38,24H39V25H38zM40,24H41V25H40zM42,24H43V25H42zM43,24H44V25H43zM44,24H45V25H44zM46,24H47V25H46zM3,25H4V26H3zM6,25H7V26H6zM10,25H11V26H10zM12,25H13V26H12zM13,25H14V26H13zM14,25H15V26H14zM15,25H16V26H15zM16,25H17V26H16zM17,25H18V26H17zM20,25H21V26H20zM22,25H23V26H22zM26,25H27V26H26zM28,25H29V26H28zM30,25H31V26H30zM31,25H32V26H31zM32,25H33V26H32zM34,25H35V26H34zM36,25H37V26H36zM38,25H39V26H38zM42,25H43V26H42zM43,25H44V26H43zM45,25H46V26H45zM3,26H4V27H3zM4,26H5V27H4zM5,26H6V27H5zM6,26H7V27H6zM7,26H8V27H7zM8,26H9V27H8zM9,26H10V27H9zM10,26H11V27H10zM11,26H12V27H11zM12,26H13V27H12zM13,26H14V27H13zM14,26H15V27H14zM15,26H16V27H15zM16,26H17V27H16zM17,26H18V27H17zM21,26H22V27H21zM22,26H23V27H22zM23,26H24V27H23zM24,26H25V27H24zM25,26H26V27H25zM26,26H27V27H26zM28,26H29V27H28zM29,26H30V27H29zM30,26H31V27H30zM31,26H32V27H31zM32,26H33V27H32zM34,26H35V27H34zM36,26H37V27H36zM38,26H39V27H38zM39,26H40V27H39zM40,26H41V27H40zM41,26H42V27H41zM42,26H43V27H42zM2,27H3V28H2zM5,27H6V28H5zM9,27H10V28H9zM11,27H12V28H11zM12,27H13V28H12zM13,27H14V28H13zM14,27H15V28H14zM15,27H16V28H15zM21,27H22V28H21zM22,27H23V28H22zM24,27H25V28H24zM27,27H28V28H27zM29,27H30V28H29zM31,27H32V28H31zM35,27H36V28H35zM37,27H38V28H37zM38,27H39V28H38zM41,27H42V28H41zM43,27H44V28H43zM46,27H47V28H46zM4,28H5V29H4zM6,28H7V29H6zM7,28H8V29H7zM8,28H9V29H8zM9,28H10V29H9zM11,28H12V29H11zM12,28H13V29H12zM13,28H14V29H13zM15,28H16V29H15zM16,28H17V29H16zM17,28H18V29H17zM19,28H20V29H19zM21,28H22V29H21zM22,28H23V29H22zM23,28H24V29H23zM24,28H25V29H24zM25,28H26V29H25zM27,28H28V29H27zM31,28H32V29H31zM34,28H35V29H34zM37,28H38V29H37zM38,28H39V29H38zM39,28H40V29H39zM40,28H41V29H40zM44,28H45V29H44zM46,28H47V29H46zM3,29H4V30H3zM5,29H6V30H5zM6,29H7V30H6zM9,29H10V30H9zM10,29H11V30H10zM11,29H12V30H11zM12,29H13V30H12zM14,29H15V30H14zM16,29H17V30H16zM17,29H18V30H17zM18,29H19V30H18zM20,29H21V30H20zM21,29H22V30H21zM23,29H24V30H23zM25,29H26V30H25zM27,29H28V30H27zM28,29H29V30H28zM30,29H31V30H30zM31,29H32V30H31zM32,29H33V30H32zM37,29H38V30H37zM40,29H41V30H40zM41,29H42V30H41zM42,29H43V30H42zM43,29H44V30H43zM45,29H46V30H45zM8,30H9V31H8zM10,30H11V31H10zM11,30H12V31H11zM13,30H14V31H13zM14,30H15V31H14zM15,30H16V31H15zM16,30H17V31H16zM17,30H18V31H17zM20,30H21V31H20zM21,30H22V31H21zM24,30H25V31H24zM25,30H26V31H25zM26,30H27V31H26zM30,30H31V31H30zM34,30H35V31H34zM35,30H36V31H35zM37,30H38V31H37zM39,30H40V31H39zM43,30H44V31H43zM46,30H47V31H46zM5,31H6V32H5zM7,31H8V32H7zM10,31H11V32H10zM12,31H13V32H12zM13,31H14V32H13zM15,31H16V32H15zM17,31H18V32H17zM18,31H19V32H18zM20,31H21V32H20zM24,31H25V32H24zM25,31H26V32H25zM26,31H27V32H26zM27,31H28V32H27zM29,31H30V32H29zM31,31H32V32H31zM33,31H34V32H33zM38,31H39V32H38zM40,31H41V32H40zM41,31H42V32H41zM44,31H45V32H44zM46,31H47V32H46zM3,32H4V33H3zM4,32H5V33H4zM5,32H6V33H5zM8,32H9V33H8zM9,32H10V33H9zM14,32H15V33H14zM15,32H16V33H15zM17,32H18V33H17zM19,32H20V33H19zM20,32H21V33H20zM21,32H22V33H21zM23,32H24V33H23zM25,32H26V33H25zM29,32H30V33H29zM37,32H38V33H37zM38,32H39V33H38zM39,32H40V33H39zM40,32H41V33H40zM41,32H42V33H41zM42,32H43V33H42zM44,32H45V33H44zM46,32H47V33H46zM4,33H5V34H4zM5,33H6V34H5zM11,33H12V34H11zM14,33H15V34H14zM16,33H17V34H16zM17,33H18V34H17zM19,33H20V34H19zM20,33H21V34H20zM23,33H24V34H23zM25,33H26V34H25zM27,33H28V34H27zM28,33H29V34H28zM30,33H31V34H30zM33,33H34V34H33zM34,33H35V34H34zM35,33H36V34H35zM37,33H38V34H37zM38,33H39V34H38zM40,33H41V34H40zM43,33H44V34H43zM45,33H46V34H45zM46,33H47V34H46zM3,34H4V35H3zM4,34H5V35H4zM5,34H6V35H5zM7,34H8V35H7zM8,34H9V35H8zM11,34H12V35H11zM12,34H13V35H12zM13,34H14V35H13zM14,34H15V35H14zM18,34H19V35H18zM19,34H20V35H19zM21,34H22V35H21zM22,34H23V35H22zM24,34H25V35H24zM28,34H29V35H28zM30,34H31V35H30zM34,34H35V35H34zM36,34H37V35H36zM37,34H38V35H37zM40,34H41V35H40zM45,34H46V35H45zM46,34H47V35H46zM2,35H3V36H2zM4,35H5V36H4zM5,35H6V36H5zM7,35H8V36H7zM9,35H10V36H9zM12,35H13V36H12zM13,35H14V36H13zM14,35H15V36H14zM15,35H16V36H15zM18,35H19V36H18zM19,35H20V36H19zM21,35H22V36H21zM22,35H23V36H22zM24,35H25V36H24zM27,35H28V36H27zM29,35H30V36H29zM31,35H32V36H31zM35,35H36V36H35zM39,35H40V36H39zM41,35H42V36H41zM43,35H44V36H43zM46,35H47V36H46zM6,36H7V37H6zM8,36H9V37H8zM10,36H11V37H10zM11,36H12V37H11zM17,36H18V37H17zM18,36H19V37H18zM19,36H20V37H19zM20,36H21V37H20zM21,36H22V37H21zM22,36H23V37H22zM25,36H26V37H25zM30,36H31V37H30zM31,36H32V37H31zM33,36H34V37H33zM35,36H36V37H35zM38,36H39V37H38zM40,36H41V37H40zM42,36H43V37H42zM46,36H47V37H46zM3,37H4V38H3zM4,37H5V38H4zM5,37H6V38H5zM6,37H7V38H6zM9,37H10V38H9zM10,37H11V38H10zM11,37H12V38H11zM13,37H14V38H13zM15,37H16V38H15zM17,37H18V38H17zM18,37H19V38H18zM19,37H20V38H19zM22,37H23V38H22zM24,37H25V38H24zM25,37H26V38H25zM27,37H28V38H27zM28,37H29V38H28zM29,37H30V38H29zM30,37H31V38H30zM34,37H35V38H34zM36,37H37V38H36zM37,37H38V38H37zM40,37H41V38H40zM42,37H43V38H42zM43,37H44V38H43zM45,37H46V38H45zM2,38H3V39H2zM5,38H6V39H5zM6,38H7V39H6zM8,38H9V39H8zM9,38H10V39H9zM11,38H12V39H11zM13,38H14V39H13zM14,38H15V39H14zM15,38H16V39H15zM18,38H19V39H18zM19,38H20V39H19zM21,38H22V39H21zM22,38H23V39H22zM23,38H24V39H23zM24,38H25V39H24zM25,38H26V39H25zM26,38H27V39H26zM28,38H29V39H28zM29,38H30V39H29zM30,38H31V39H30zM31,38H32V39H31zM34,38H35V39H34zM35,38H36V39H35zM36,38H37V39H36zM37,38H38V39H37zM38,38H39V39H38zM39,38H40V39H39zM40,38H41V39H40zM41,38H42V39H41zM42,38H43V39H42zM43,38H44V39H43zM10,39H11V40H10zM11,39H12V40H11zM12,39H13V40H12zM15,39H16V40H15zM17,39H18V40H17zM19,39H20V40H19zM20,39H21V40H20zM22,39H23V40H22zM26,39H27V40H26zM27,39H28V40H27zM33,39H34V40H33zM35,39H36V40H35zM37,39H38V40H37zM38,39H39V40H38zM42,39H43V40H42zM43,39H44V40H43zM46,39H47V40H46zM2,40H3V41H2zM3,40H4V41H3zM4,40H5V41H4zM5,40H6V41H5zM6,40H7V41H6zM7,40H8V41H7zM8,40H9V41H8zM10,40H11V41H10zM15,40H16V41H15zM17,40H18V41H17zM18,40H19V41H18zM20,40H21V41H20zM22,40H23V41H22zM24,40H25V41H24zM26,40H27V41H26zM29,40H30V41H29zM30,40H31V41H30zM34,40H35V41H34zM38,40H39V41H38zM40,40H41V41H40zM42,40H43V41H42zM43,40H44V41H43zM44,40H45V41H44zM45,40H46V41H45zM46,40H47V41H46zM2,41H3V42H2zM8,41H9V42H8zM13,41H14V42H13zM16,41H17V42H16zM20,41H21V42H20zM21,41H22V42H21zM22,41H23V42H22zM26,41H27V42H26zM27,41H28V42H27zM28,41H29V42H28zM30,41H31V42H30zM32,41H33V42H32zM33,41H34V42H33zM34,41H35V42H34zM35,41H36V42H35zM37,41H38V42H37zM38,41H39V42H38zM42,41H43V42H42zM43,41H44V42H43zM45,41H46V42H45zM2,42H3V43H2zM4,42H5V43H4zM5,42H6V43H5zM6,42H7V43H6zM8,42H9V43H8zM12,42H13V43H12zM13,42H14V43H13zM14,42H15V43H14zM15,42H16V43H15zM18,42H19V43H18zM21,42H22V43H21zM22,42H23V43H22zM23,42H24V43H23zM24,42H25V43H24zM25,42H26V43H25zM26,42H27V43H26zM30,42H31V43H30zM32,42H33V43H32zM34,42H35V43H34zM35,42H36V43H35zM36,42H37V43H36zM38,42H39V43H38zM39,42H40V43H39zM40,42H41V43H40zM41,42H42V43H41zM42,42H43V43H42zM45,42H46V43H45zM46,42H47V43H46zM2,43H3V44H2zM4,43H5V44H4zM5,43H6V44H5zM6,43H7V44H6zM8,43H9V44H8zM12,43H13V44H12zM14,43H15V44H14zM17,43H18V44H17zM18,43H19V44H18zM19,43H20V44H19zM20,43H21V44H20zM21,43H22V44H21zM22,43H23V44H22zM23,43H24V44H23zM24,43H25V44H24zM25,43H26V44H25zM27,43H28V44H27zM29,43H30V44H29zM30,43H31V44H30zM31,43H32V44H31zM35,43H36V44H35zM38,43H39V44H38zM42,43H43V44H42zM43,43H44V44H43zM45,43H46V44H45zM46,43H47V44H46zM2,44H3V45H2zM4,44H5V45H4zM5,44H6V45H5zM6,44H7V45H6zM8,44H9V45H8zM10,44H11V45H10zM11,44H12V45H11zM14,44H15V45H14zM15,44H16V45H15zM16,44H17V45H16zM18,44H19V45H18zM19,44H20V45H19zM22,44H23V45H22zM23,44H24V45H23zM24,44H25V45H24zM26,44H27V45H26zM27,44H28V45H27zM31,44H32V45H31zM35,44H36V45H35zM38,44H39V45H38zM39,44H40V45H39zM42,44H43V45H42zM44,44H45V45H44zM46,44H47V45H46zM2,45H3V46H2zM8,45H9V46H8zM11,45H12V46H11zM13,45H14V46H13zM19,45H20V46H19zM20,45H21V46H20zM23,45H24V46H23zM24,45H25V46H24zM25,45H26V46H25zM26,45H27V46H26zM27,45H28V46H27zM30,45H31V46H30zM34,45H35V46H34zM35,45H36V46H35zM37,45H38V46H37zM39,45H40V46H39zM41,45H42V46H41zM42,45H43V46H42zM2,46H3V47H2zM3,46H4V47H3zM4,46H5V47H4zM5,46H6V47H5zM6,46H7V47H6zM7,46H8V47H7zM8,46H9V47H8zM10,46H11V47H10zM12,46H13V47H12zM14,46H15V47H14zM18,46H19V47H18zM19,46H20V47H19zM20,46H21V47H20zM22,46H23V47H22zM24,46H25V47H24zM26,46H27V47H26zM28,46H29V47H28zM30,46H31V47H30zM31,46H32V47H31zM32,46H33V47H32zM33,46H34V47H33zM34,46H35V47H34zM35,46H36V47H35zM39,46H40V47H39zM42,46H43V47H42zM43,46H44V47H43zM46,46H47V47H46z" id="qr-path" fill="#000000" fill-opacity="1" fill-rule="nonzero" stroke="none" /></svg>